<svg width="41" height="34" viewBox="0 0 41 34" xmlns="http://www.w3.org/2000/svg"><title>envelope</title><g fill="#828282" fill-rule="evenodd"><path d="M21.314.439c-.616-.567-1.635-.567-2.252 0L.27 11.777a.532.532 0 0 0-.257.455v20.104c0 .917.75 1.664 1.672 1.664h37.007a1.67 1.67 0 0 0 1.672-1.664V12.232a.532.532 0 0 0-.257-.455L21.314.439zm-1.654.878a.56.56 0 0 0 .101-.078.601.601 0 0 1 .852 0 .6.6 0 0 0 .1.078l18.304 11.044-13.258 7.9a.533.533 0 0 0 .543.915l13.01-7.746v18.867L21.32 20.327c-.572-.456-1.694-.456-2.227-.027L1.062 32.291V13.43l13.01 7.746a.532.532 0 0 0 .544-.914l-13.26-7.9L19.66 1.317zm18.686 31.62H2.02L19.718 21.16c.184-.147.756-.146.976.026l17.652 11.753z"/><path d="M6.906 13.813H33.47a.531.531 0 0 0 0-1.063H6.906a.531.531 0 0 0 0 1.063z"/></g></svg>