<svg width="30" height="34" viewBox="0 0 30 34" xmlns="http://www.w3.org/2000/svg"><title>lock</title><path d="M14.875 0C9.016 0 4.25 4.766 4.25 10.625v3.188H2.656A2.66 2.66 0 0 0 0 16.468v14.875A2.66 2.66 0 0 0 2.656 34h24.438a2.66 2.66 0 0 0 2.656-2.656V16.469a2.66 2.66 0 0 0-2.656-2.657H25.5v-3.187C25.5 4.766 20.734 0 14.875 0zM5.312 10.625c0-5.272 4.29-9.563 9.563-9.563 5.272 0 9.563 4.29 9.563 9.563v3.188H21.25v-3.188a6.381 6.381 0 0 0-6.375-6.375A6.381 6.381 0 0 0 8.5 10.625v3.188H5.312v-3.188zm14.875 3.188H9.563v-3.188a5.319 5.319 0 0 1 5.313-5.313 5.319 5.319 0 0 1 5.313 5.313v3.188zm-7.126 8.5L7.75 27.625H2.876l5.313-5.313h4.872zm6.375 0l-5.312 5.312H9.25l5.313-5.313h4.872zm6.375 0L20.5 27.625h-4.873l5.313-5.313h4.872zm2.877 0v5.312H22l5.313-5.313h1.373zM1.373 27.625h-.312v-5.313h5.624l-5.312 5.313zm25.72 5.313H2.656a1.596 1.596 0 0 1-1.594-1.594v-2.657h27.625v2.657c0 .878-.715 1.593-1.593 1.593zm1.593-16.47v4.782H1.063v-4.781c0-.879.716-1.594 1.594-1.594h24.438c.878 0 1.593.715 1.593 1.594z" fill="#828282" fill-rule="evenodd"/></svg>