<svg class="name__text" width="123" viewBox="0 0 332 163" xmlns="http://www.w3.org/2000/svg">
  <title>Luke Channings</title>
  <g fill="currentColor" fill-rule="evenodd">
    <path d="M15.648 68.574c0-.936.138-1.815.414-2.637a6.327 6.327 0 0 1 1.197-2.142 5.544 5.544 0 0 1 1.926-1.431c.762-.348 1.623-.522 2.583-.522.756 0 1.41.099 1.962.297.552.198 1.017.444 1.395.738.378.294.687.615.927.963s.423.675.549.981a4.817 4.817 0 0 1 .333 1.161h-.792a3.839 3.839 0 0 0-.522-1.449 3.992 3.992 0 0 0-.99-1.089 4.4 4.4 0 0 0-1.323-.684 5.005 5.005 0 0 0-1.539-.234c-.84 0-1.59.162-2.25.486a5.053 5.053 0 0 0-1.674 1.305 5.75 5.75 0 0 0-1.044 1.917 7.465 7.465 0 0 0-.36 2.34c0 .828.12 1.608.36 2.34a5.75 5.75 0 0 0 1.044 1.917 5.053 5.053 0 0 0 1.674 1.305c.66.324 1.41.486 2.25.486.624 0 1.209-.129 1.755-.387a4.804 4.804 0 0 0 1.431-1.026c.408-.426.735-.918.981-1.476a5.019 5.019 0 0 0 .423-1.737h.792a6.313 6.313 0 0 1-.567 2.124 5.945 5.945 0 0 1-1.17 1.683 5.137 5.137 0 0 1-1.647 1.107 5.074 5.074 0 0 1-1.998.396c-.96 0-1.821-.174-2.583-.522a5.544 5.544 0 0 1-1.926-1.431 6.327 6.327 0 0 1-1.197-2.142 8.232 8.232 0 0 1-.414-2.637zm14.841-6.426v5.58h.036a2.97 2.97 0 0 1 .513-.927 3.41 3.41 0 0 1 1.737-1.125 3.976 3.976 0 0 1 1.062-.144c.54 0 .999.066 1.377.198s.687.306.927.522c.24.216.429.459.567.729.138.27.237.543.297.819.06.276.096.543.108.801.012.258.018.483.018.675V75h-.684v-5.85a8.69 8.69 0 0 0-.054-.864 2.627 2.627 0 0 0-.315-.999 2.287 2.287 0 0 0-.792-.819c-.354-.228-.843-.342-1.467-.342-.528 0-.996.096-1.404.288a3.041 3.041 0 0 0-1.044.801c-.288.342-.507.75-.657 1.224-.15.474-.225.993-.225 1.557V75h-.684V62.148h.684zM46.41 73.164h-.036a2.854 2.854 0 0 1-.468.783 3.316 3.316 0 0 1-.747.657 3.702 3.702 0 0 1-.999.45c-.372.108-.78.162-1.224.162-.984 0-1.746-.213-2.286-.639-.54-.426-.81-1.083-.81-1.971 0-.54.108-.981.324-1.323.216-.342.489-.612.819-.81.33-.198.696-.339 1.098-.423.402-.084.789-.144 1.161-.18l1.062-.09c.492-.036.879-.093 1.161-.171.282-.078.495-.186.639-.324a.923.923 0 0 0 .27-.531c.036-.216.054-.486.054-.81a1.573 1.573 0 0 0-.594-1.278 2.227 2.227 0 0 0-.792-.396c-.324-.096-.72-.144-1.188-.144-.828 0-1.497.204-2.007.612-.51.408-.789 1.026-.837 1.854h-.684c.048-1.02.375-1.785.981-2.295s1.467-.765 2.583-.765 1.929.219 2.439.657c.51.438.765 1.011.765 1.719v5.382c0 .132.003.264.009.396.006.132.027.252.063.36a.54.54 0 0 0 .18.261c.084.066.204.099.36.099.12 0 .288-.018.504-.054v.576c-.18.048-.366.072-.558.072-.276 0-.495-.036-.657-.108a.865.865 0 0 1-.369-.288 1.066 1.066 0 0 1-.171-.423 2.921 2.921 0 0 1-.045-.531v-.486zm0-3.42c-.168.204-.423.342-.765.414a9.523 9.523 0 0 1-1.143.162l-1.152.108c-.336.036-.672.087-1.008.153a2.932 2.932 0 0 0-.909.333 1.86 1.86 0 0 0-.657.639c-.168.27-.252.621-.252 1.053 0 .684.216 1.191.648 1.521.432.33 1.026.495 1.782.495.78 0 1.398-.141 1.854-.423.456-.282.804-.606 1.044-.972s.393-.72.459-1.062c.066-.342.099-.573.099-.693v-1.728zm3.987-3.996h.684v1.98h.036a2.97 2.97 0 0 1 .513-.927 3.41 3.41 0 0 1 1.737-1.125 3.976 3.976 0 0 1 1.062-.144c.54 0 .999.066 1.377.198s.687.306.927.522c.24.216.429.459.567.729.138.27.237.543.297.819.06.276.096.543.108.801.012.258.018.483.018.675V75h-.684v-5.85a8.69 8.69 0 0 0-.054-.864 2.627 2.627 0 0 0-.315-.999 2.287 2.287 0 0 0-.792-.819c-.354-.228-.843-.342-1.467-.342-.528 0-.996.096-1.404.288a3.041 3.041 0 0 0-1.044.801c-.288.342-.507.75-.657 1.224-.15.474-.225.993-.225 1.557V75h-.684v-9.252zm10.467 0h.684v1.98h.036a2.97 2.97 0 0 1 .513-.927 3.41 3.41 0 0 1 1.737-1.125 3.976 3.976 0 0 1 1.062-.144c.54 0 .999.066 1.377.198s.687.306.927.522c.24.216.429.459.567.729.138.27.237.543.297.819.06.276.096.543.108.801.012.258.018.483.018.675V75h-.684v-5.85a8.69 8.69 0 0 0-.054-.864 2.627 2.627 0 0 0-.315-.999 2.287 2.287 0 0 0-.792-.819c-.354-.228-.843-.342-1.467-.342-.528 0-.996.096-1.404.288a3.041 3.041 0 0 0-1.044.801c-.288.342-.507.75-.657 1.224-.15.474-.225.993-.225 1.557V75h-.684v-9.252zm10.629-1.746v-1.854h.684v1.854h-.684zm0 10.998v-9.252h.684V75h-.684zm3.987-9.252h.684v1.98h.036a2.97 2.97 0 0 1 .513-.927 3.41 3.41 0 0 1 1.737-1.125 3.976 3.976 0 0 1 1.062-.144c.54 0 .999.066 1.377.198s.687.306.927.522c.24.216.429.459.567.729.138.27.237.543.297.819.06.276.096.543.108.801.012.258.018.483.018.675V75h-.684v-5.85a8.69 8.69 0 0 0-.054-.864 2.627 2.627 0 0 0-.315-.999 2.287 2.287 0 0 0-.792-.819c-.354-.228-.843-.342-1.467-.342-.528 0-.996.096-1.404.288a3.041 3.041 0 0 0-1.044.801c-.288.342-.507.75-.657 1.224-.15.474-.225.993-.225 1.557V75h-.684v-9.252zm18.117 0v8.766c0 .516-.06 1.017-.18 1.503s-.327.915-.621 1.287c-.294.372-.699.669-1.215.891-.516.222-1.17.333-1.962.333a6.02 6.02 0 0 1-1.386-.153 3.345 3.345 0 0 1-1.134-.486 2.478 2.478 0 0 1-.783-.882c-.198-.366-.309-.819-.333-1.359h.684c.036.408.138.756.306 1.044.168.288.387.525.657.711.27.186.573.321.909.405.336.084.696.126 1.08.126.636 0 1.167-.096 1.593-.288.426-.192.765-.441 1.017-.747.252-.306.429-.654.531-1.044.102-.39.153-.783.153-1.179v-2.124h-.036c-.324.684-.765 1.206-1.323 1.566-.558.36-1.233.54-2.025.54-.684 0-1.275-.117-1.773-.351a3.426 3.426 0 0 1-1.242-.972 4.189 4.189 0 0 1-.738-1.449 6.37 6.37 0 0 1-.243-1.8c0-.612.087-1.194.261-1.746a4.346 4.346 0 0 1 .765-1.449 3.696 3.696 0 0 1 1.251-.99c.498-.246 1.071-.369 1.719-.369.732 0 1.407.186 2.025.558.618.372 1.059.9 1.323 1.584h.036v-1.926h.684zm-4.068.378c-.564 0-1.053.114-1.467.342a3.093 3.093 0 0 0-1.026.9c-.27.372-.474.795-.612 1.269a5.158 5.158 0 0 0-.207 1.449c0 .54.069 1.053.207 1.539.138.486.348.909.63 1.269.282.36.63.645 1.044.855.414.21.891.315 1.431.315.564 0 1.056-.108 1.476-.324a3.06 3.06 0 0 0 1.053-.882 3.87 3.87 0 0 0 .63-1.269c.138-.474.207-.975.207-1.503a5.38 5.38 0 0 0-.207-1.494 3.756 3.756 0 0 0-.63-1.269 3.102 3.102 0 0 0-1.053-.873c-.42-.216-.912-.324-1.476-.324zm7.533 5.796c.024.432.12.813.288 1.143.168.33.387.612.657.846.27.234.585.411.945.531.36.12.75.18 1.17.18.3 0 .621-.027.963-.081a3.34 3.34 0 0 0 .954-.297 1.98 1.98 0 0 0 .729-.603c.192-.258.288-.585.288-.981 0-.516-.156-.906-.468-1.17-.312-.264-.705-.468-1.179-.612a11.954 11.954 0 0 0-1.53-.351 7.936 7.936 0 0 1-1.53-.405 3.114 3.114 0 0 1-1.179-.765c-.312-.33-.468-.813-.468-1.449 0-.456.102-.837.306-1.143.204-.306.465-.549.783-.729.318-.18.675-.309 1.071-.387a6.134 6.134 0 0 1 1.188-.117c.48 0 .93.054 1.35.162.42.108.783.282 1.089.522.306.24.546.546.72.918.174.372.261.822.261 1.35h-.684c0-.42-.069-.78-.207-1.08a1.88 1.88 0 0 0-.576-.729 2.504 2.504 0 0 0-.873-.414 4.16 4.16 0 0 0-1.08-.135c-.312 0-.627.03-.945.09a2.73 2.73 0 0 0-.855.306c-.252.144-.459.33-.621.558a1.392 1.392 0 0 0-.243.828c0 .372.09.672.27.9.18.228.417.411.711.549.294.138.624.249.99.333l1.107.252c.456.084.885.183 1.287.297.402.114.75.27 1.044.468.294.198.525.453.693.765.168.312.252.708.252 1.188 0 .504-.114.918-.342 1.242a2.638 2.638 0 0 1-.864.783 3.662 3.662 0 0 1-1.161.414 6.938 6.938 0 0 1-1.251.117 4.982 4.982 0 0 1-1.467-.207 3.329 3.329 0 0 1-1.179-.63 3 3 0 0 1-.792-1.035c-.192-.408-.294-.882-.306-1.422h.684zM.032.304h2.816v43.264h25.92V46H.032V.304zM57.632 46H55.2v-7.04h-.128a10.557 10.557 0 0 1-1.824 3.296 12.123 12.123 0 0 1-6.176 4 14.136 14.136 0 0 1-3.776.512c-1.92 0-3.552-.235-4.896-.704-1.344-.47-2.443-1.088-3.296-1.856a8.967 8.967 0 0 1-2.016-2.592 11.98 11.98 0 0 1-1.056-2.912 17.164 17.164 0 0 1-.384-2.848 52.511 52.511 0 0 1-.064-2.4V13.104h2.432v20.8c0 .853.064 1.888.192 3.104a9.308 9.308 0 0 0 1.12 3.52c.619 1.13 1.547 2.101 2.784 2.912 1.237.81 2.987 1.216 5.248 1.216 1.835 0 3.488-.341 4.96-1.024a10.732 10.732 0 0 0 3.744-2.848c1.024-1.216 1.803-2.667 2.336-4.352.533-1.685.8-3.53.8-5.536V13.104h2.432V46zM64.928.304h2.432v30.272l20.288-17.472h3.52l-14.4 12.288L92.192 46h-3.328L74.848 27.248l-7.488 6.336V46h-2.432V.304zm30.464 29.568v.384c0 1.92.256 3.755.768 5.504.512 1.75 1.27 3.285 2.272 4.608a10.795 10.795 0 0 0 3.776 3.136c1.515.768 3.275 1.152 5.28 1.152 3.285 0 5.888-.864 7.808-2.592 1.92-1.728 3.243-4.128 3.968-7.2h2.432c-.725 3.84-2.293 6.784-4.704 8.832-2.41 2.048-5.6 3.072-9.568 3.072-2.432 0-4.555-.437-6.368-1.312-1.813-.875-3.328-2.07-4.544-3.584-1.216-1.515-2.123-3.307-2.72-5.376-.597-2.07-.896-4.299-.896-6.688 0-2.304.31-4.512.928-6.624.619-2.112 1.547-3.968 2.784-5.568 1.237-1.6 2.784-2.88 4.64-3.84 1.856-.96 4.043-1.44 6.56-1.44 2.304 0 4.341.427 6.112 1.28 1.77.853 3.253 2.016 4.448 3.488 1.195 1.472 2.101 3.179 2.72 5.12.619 1.941.928 4.021.928 6.24 0 .213-.01.459-.032.736a9.162 9.162 0 0 0-.032.672h-26.56zm24.128-2.112a19.698 19.698 0 0 0-.896-5.088c-.512-1.6-1.27-3.008-2.272-4.224a11.3 11.3 0 0 0-3.648-2.912c-1.43-.725-3.061-1.088-4.896-1.088-1.963 0-3.69.373-5.184 1.12-1.493.747-2.752 1.728-3.776 2.944s-1.813 2.635-2.368 4.256a19.976 19.976 0 0 0-1.024 4.992h24.064z"/>
    <path d="M1 125.345067C1 121.821136 1.5185209 118.511853 2.55557826 115.417119 3.59263562 112.322385 5.09183735 109.634299 7.05322844 107.35278 9.01461953 105.071261 11.4268689 103.275439 14.290049 101.965259 17.1532291 100.65508 20.3883487 100 23.9955047 100 26.8361401 100 29.2934783 100.372718 31.367593 101.118165 33.4417077 101.863612 35.1888977 102.789759 36.6092154 103.896635 38.0295331 105.00351 39.190569 106.21202 40.092358 107.522199 40.994147 108.832378 41.6817508 110.063477 42.15519 111.215531 42.6286293 112.367585 42.9555229 113.361499 43.1358807 114.197303 43.3162385 115.033107 43.406416 115.496181 43.406416 115.586538L40.4305272 115.586538C40.114901 113.553501 39.4611138 111.73509 38.4691459 110.13125 37.477178 108.52741 36.2372367 107.160778 34.7492848 106.031313 33.261333 104.901848 31.6043205 104.043467 29.7781978 103.456145 27.9520751 102.868824 26.02453 102.575167 23.9955047 102.575167 20.8392432 102.575167 18.0211948 103.185069 15.541275 104.404891 13.0613553 105.624713 10.9647273 107.262413 9.25132816 109.318039 7.53792904 111.373665 6.2303546 113.77939 5.32856559 116.535284 4.42677658 119.291179 3.97588884 122.227743 3.97588884 125.345067 3.97588884 128.46239 4.42677658 131.398955 5.32856559 134.154849 6.2303546 136.910744 7.53792904 139.316468 9.25132816 141.372094 10.9647273 143.42772 13.0613553 145.06542 15.541275 146.285242 18.0211948 147.505064 20.8392432 148.114966 23.9955047 148.114966 26.3401561 148.114966 28.5382339 147.629303 30.5898038 146.657963 32.6413738 145.686624 34.4336526 144.399053 35.9666939 142.795213 37.4997352 141.191372 38.7284043 139.339078 39.652738 137.238273 40.5770718 135.137468 41.1068649 132.957634 41.2421332 130.698704L44.2180221 130.698704C43.9474854 133.590134 43.2373372 136.255631 42.0875562 138.695275 40.9377752 141.13492 39.4723901 143.246987 37.6913568 145.031542 35.9103235 146.816097 33.8475121 148.205318 31.5028606 149.199247 29.1582092 150.193176 26.6557823 150.690133 23.9955047 150.690133 20.3883487 150.690133 17.1532291 150.035053 14.290049 148.724874 11.4268689 147.414695 9.01461953 145.618872 7.05322844 143.337353 5.09183735 141.055834 3.59263562 138.367748 2.55557826 135.273014 1.5185209 132.17828 1 128.868997 1 125.345067zM56.7640989 101.152048L56.7640989 122.159991 56.8993666 122.159991C57.3502611 120.849812 57.9927761 119.686481 58.8269309 118.669962 59.6610858 117.653444 60.6304944 116.783769 61.7351859 116.060911 62.8398775 115.338054 64.0460022 114.795919 65.3535962 114.43449 66.6611903 114.073061 67.9913091 113.892349 69.3439926 113.892349 71.3730179 113.892349 73.0976635 114.140828 74.5179812 114.637792 75.9382989 115.134757 77.0993348 115.789837 78.0011238 116.603052 78.9029128 117.416266 79.613061 118.331119 80.1315897 119.347638 80.6501184 120.364156 81.0221008 121.391954 81.247548 122.431062 81.4729953 123.470169 81.6082616 124.475378 81.653351 125.446718 81.6984405 126.418058 81.7209849 127.265144 81.7209849 127.988001L81.7209849 149.538085 79.1508991 149.538085 79.1508991 127.513628C79.1508991 126.655235 79.0832659 125.570965 78.9479975 124.260786 78.8127292 122.950606 78.4182024 121.696919 77.7644054 120.499686 77.1106084 119.302453 76.1186553 118.274656 74.7885166 117.416262 73.4583778 116.557869 71.6210102 116.128679 69.2763588 116.128679 67.292423 116.128679 65.5339608 116.490102 64.0009195 117.21296 62.4678782 117.935817 61.1603037 118.941026 60.0781569 120.228616 58.9960101 121.516206 58.17314 123.052255 57.6095219 124.83681 57.0459037 126.621365 56.7640989 128.57531 56.7640989 130.698704L56.7640989 149.538085 54.1940131 149.538085 54.1940131 101.152048 56.7640989 101.152048zM116.586228 142.625794L116.45096 142.625794C116.045155 143.664902 115.459001 144.647521 114.692481 145.573683 113.92596 146.499844 112.990368 147.324341 111.885676 148.047198 110.780985 148.770056 109.529771 149.33478 108.131998 149.741387 106.734225 150.147995 105.201207 150.351295 103.532897 150.351295 99.8355625 150.351295 96.9724253 149.549387 94.9434001 147.945547 92.9143748 146.341707 91.8998774 143.868216 91.8998774 140.524999 91.8998774 138.491963 92.3056764 136.831674 93.1172865 135.544084 93.9288966 134.256494 94.9546662 133.239991 96.1946261 132.494544 97.434586 131.749097 98.8097936 131.218256 100.32029 130.902006 101.830787 130.585756 103.2849 130.359867 104.682673 130.224331L108.673069 129.885493C110.521737 129.749957 111.975849 129.535362 113.035452 129.241701 114.095054 128.94804 114.895379 128.541439 115.436453 128.021885 115.977526 127.502331 116.315692 126.835957 116.45096 126.022742 116.586229 125.209527 116.653862 124.193024 116.653862 122.973202 116.653862 122.024452 116.473507 121.143482 116.112791 120.330267 115.752076 119.517053 115.188466 118.794206 114.421945 118.161705 113.655425 117.529205 112.663472 117.032248 111.446056 116.670819 110.228641 116.30939 108.740712 116.128679 106.982223 116.128679 103.871051 116.128679 101.357352 116.896703 99.4410503 118.432776 97.5247486 119.968848 96.4764346 122.295511 96.2960768 125.412834L93.725991 125.412834C93.9063488 121.572653 95.1350179 118.692561 97.4120351 116.772471 99.6890524 114.85238 102.924172 113.892349 107.117491 113.892349 111.31081 113.892349 114.365574 114.716846 116.281876 116.365865 118.198177 118.014884 119.156314 120.17213 119.156314 122.837667L119.156314 143.100167C119.156314 143.597131 119.167586 144.094088 119.190131 144.591053 119.212675 145.088018 119.291581 145.539797 119.426849 145.946404 119.562118 146.353011 119.787561 146.680551 120.103188 146.929034 120.418814 147.177516 120.869701 147.301755 121.455864 147.301755 121.906759 147.301755 122.538002 147.233988 123.349612 147.098453L123.349612 149.267014C122.67327 149.447729 121.974394 149.538085 121.252963 149.538085 120.215905 149.538085 119.393035 149.402551 118.784328 149.131479 118.17562 148.860408 117.71346 148.498984 117.397834 148.047198 117.082208 147.595412 116.868036 147.064572 116.755313 146.454661 116.642589 145.84475 116.586228 145.178375 116.586228 144.455518L116.586228 142.625794zM116.586228 129.749958C115.954976 130.517994 114.996839 131.03754 113.71179 131.308612 112.426741 131.579683 110.995172 131.782984 109.417041 131.91852L105.088476 132.325125C103.825971 132.460661 102.563485 132.652667 101.300981 132.901149 100.038476 133.149632 98.8999846 133.567527 97.885472 134.154849 96.8709594 134.742171 96.0480892 135.544079 95.4168369 136.560597 94.7855846 137.577116 94.4699632 138.89857 94.4699632 140.524999 94.4699632 143.10018 95.2815612 145.008947 96.9047814 146.251358 98.5280016 147.49377 100.759896 148.114966 103.600531 148.114966 106.531346 148.114966 108.853417 147.584125 110.566817 146.522428 112.280216 145.460731 113.58779 144.240927 114.489579 142.86298 115.391368 141.485033 115.96625 140.152284 116.214242 138.864694 116.462234 137.577104 116.586228 136.707429 116.586228 136.255643L116.586228 129.749958zM131.567123 114.70556L134.137209 114.70556 134.137209 122.159991 134.272477 122.159991C134.723371 120.849812 135.365886 119.686481 136.200041 118.669962 137.034196 117.653444 138.003604 116.783769 139.108296 116.060911 140.212987 115.338054 141.419112 114.795919 142.726706 114.43449 144.0343 114.073061 145.364419 113.892349 146.717103 113.892349 148.746128 113.892349 150.470773 114.140828 151.891091 114.637792 153.311409 115.134757 154.472445 115.789837 155.374234 116.603052 156.276023 117.416266 156.986171 118.331119 157.5047 119.347638 158.023228 120.364156 158.395211 121.391954 158.620658 122.431062 158.846105 123.470169 158.981372 124.475378 159.026461 125.446718 159.07155 126.418058 159.094095 127.265144 159.094095 127.988001L159.094095 149.538085 156.524009 149.538085 156.524009 127.513628C156.524009 126.655235 156.456376 125.570965 156.321107 124.260786 156.185839 122.950606 155.791312 121.696919 155.137515 120.499686 154.483718 119.302453 153.491765 118.274656 152.161626 117.416262 150.831488 116.557869 148.99412 116.128679 146.649469 116.128679 144.665533 116.128679 142.907071 116.490102 141.374029 117.21296 139.840988 117.935817 138.533414 118.941026 137.451267 120.228616 136.36912 121.516206 135.54625 123.052255 134.982632 124.83681 134.419014 126.621365 134.137209 128.57531 134.137209 130.698704L134.137209 149.538085 131.567123 149.538085 131.567123 114.70556zM170.896199 114.70556L173.466285 114.70556 173.466285 122.159991 173.601553 122.159991C174.052447 120.849812 174.694962 119.686481 175.529117 118.669962 176.363272 117.653444 177.332681 116.783769 178.437372 116.060911 179.542064 115.338054 180.748189 114.795919 182.055783 114.43449 183.363377 114.073061 184.693495 113.892349 186.046179 113.892349 188.075204 113.892349 189.79985 114.140828 191.220168 114.637792 192.640485 115.134757 193.801521 115.789837 194.70331 116.603052 195.605099 117.416266 196.315247 118.331119 196.833776 119.347638 197.352305 120.364156 197.724287 121.391954 197.949734 122.431062 198.175182 123.470169 198.310448 124.475378 198.355537 125.446718 198.400627 126.418058 198.423171 127.265144 198.423171 127.988001L198.423171 149.538085 195.853085 149.538085 195.853085 127.513628C195.853085 126.655235 195.785452 125.570965 195.650184 124.260786 195.514916 122.950606 195.120389 121.696919 194.466592 120.499686 193.812795 119.302453 192.820842 118.274656 191.490703 117.416262 190.160564 116.557869 188.323197 116.128679 185.978545 116.128679 183.994609 116.128679 182.236147 116.490102 180.703106 117.21296 179.170065 117.935817 177.86249 118.941026 176.780343 120.228616 175.698196 121.516206 174.875326 123.052255 174.311708 124.83681 173.74809 126.621365 173.466285 128.57531 173.466285 130.698704L173.466285 149.538085 170.896199 149.538085 170.896199 114.70556zM210.83398 108.132107L210.83398 101.152048 213.404066 101.152048 213.404066 108.132107 210.83398 108.132107zM210.83398 149.538085L210.83398 114.70556 213.404066 114.70556 213.404066 149.538085 210.83398 149.538085zM225.814875 114.70556L228.384961 114.70556 228.384961 122.159991 228.520229 122.159991C228.971123 120.849812 229.613638 119.686481 230.447793 118.669962 231.281948 117.653444 232.251357 116.783769 233.356048 116.060911 234.46074 115.338054 235.666864 114.795919 236.974459 114.43449 238.282053 114.073061 239.612171 113.892349 240.964855 113.892349 242.99388 113.892349 244.718526 114.140828 246.138843 114.637792 247.559161 115.134757 248.720197 115.789837 249.621986 116.603052 250.523775 117.416266 251.233923 118.331119 251.752452 119.347638 252.270981 120.364156 252.642963 121.391954 252.86841 122.431062 253.093858 123.470169 253.229124 124.475378 253.274213 125.446718 253.319303 126.418058 253.341847 127.265144 253.341847 127.988001L253.341847 149.538085 250.771761 149.538085 250.771761 127.513628C250.771761 126.655235 250.704128 125.570965 250.56886 124.260786 250.433591 122.950606 250.039065 121.696919 249.385268 120.499686 248.731471 119.302453 247.739518 118.274656 246.409379 117.416262 245.07924 116.557869 243.241873 116.128679 240.897221 116.128679 238.913285 116.128679 237.154823 116.490102 235.621782 117.21296 234.08874 117.935817 232.781166 118.941026 231.699019 120.228616 230.616872 121.516206 229.794002 123.052255 229.230384 124.83681 228.666766 126.621365 228.384961 128.57531 228.384961 130.698704L228.384961 149.538085 225.814875 149.538085 225.814875 114.70556zM293.888333 114.70556L293.888333 147.708361C293.888333 149.65104 293.662889 151.537218 293.211994 153.366952 292.7611 155.196685 291.983318 156.811796 290.878627 158.212332 289.773935 159.612869 288.252189 160.731022 286.313343 161.566826 284.374497 162.40263 281.917158 162.820526 278.941255 162.820526 277.092587 162.820526 275.356669 162.62852 273.733449 162.244502 272.110229 161.860484 270.689933 161.250582 269.472517 160.414778 268.255102 159.578974 267.274421 158.472115 266.530445 157.094167 265.78647 155.71622 265.369398 154.010754 265.279219 151.977717L267.849305 151.977717C267.984574 153.513789 268.367828 154.823949 268.999081 155.908235 269.630333 156.992521 270.453203 157.884785 271.467716 158.585054 272.482228 159.285322 273.62072 159.793573 274.883224 160.109824 276.145729 160.426074 277.498392 160.584197 278.941255 160.584197 281.330995 160.584197 283.326174 160.222773 284.926849 159.499916 286.527525 158.777058 287.801283 157.839616 288.748161 156.687562 289.695039 155.535508 290.360099 154.225348 290.743359 152.757044 291.12662 151.288739 291.318247 149.809162 291.318247 148.318269L291.318247 140.321697 291.182979 140.321697C289.965564 142.896877 288.308552 144.862116 286.211892 146.217474 284.115233 147.572832 281.578989 148.250501 278.603085 148.250501 276.032987 148.250501 273.812365 147.810016 271.941152 146.929034 270.06994 146.048051 268.514378 144.828247 267.274418 143.269586 266.034458 141.710924 265.110138 139.892513 264.50143 137.814297 263.892723 135.736082 263.588374 133.477186 263.588374 131.037541 263.588374 128.733433 263.915267 126.542304 264.569064 124.464088 265.222861 122.385873 266.180998 120.567462 267.443502 119.0088 268.706007 117.450138 270.272842 116.207746 272.144054 115.281584 274.015266 114.355423 276.168255 113.892349 278.603085 113.892349 281.353542 113.892349 283.889785 114.592607 286.211892 115.993144 288.533999 117.39368 290.191011 119.381509 291.182979 121.956689L291.318247 121.956689 291.318247 114.70556 293.888333 114.70556zM278.603085 116.128679C276.483881 116.128679 274.646514 116.557869 273.090928 117.416262 271.535342 118.274656 270.250312 119.404104 269.235799 120.80464 268.221286 122.205177 267.454777 123.797698 266.936248 125.582253 266.41772 127.366808 266.158459 129.185219 266.158459 131.037541 266.158459 133.070578 266.41772 135.001934 266.936248 136.831668 267.454777 138.661401 268.243831 140.253922 269.303433 141.60928 270.363035 142.964638 271.670609 144.037614 273.226195 144.828239 274.781781 145.618865 276.57406 146.014172 278.603085 146.014172 280.72229 146.014172 282.570929 145.60757 284.14906 144.794356 285.727191 143.981141 287.046037 142.874282 288.10564 141.473745 289.165242 140.073209 289.954295 138.480687 290.472824 136.696132 290.991353 134.911578 291.250613 133.0254 291.250613 131.037541 291.250613 129.094862 290.991353 127.219978 290.472824 125.412834 289.954295 123.60569 289.165242 122.013169 288.10564 120.635221 287.046037 119.257274 285.727191 118.16171 284.14906 117.348495 282.570929 116.53528 280.72229 116.128679 278.603085 116.128679zM306.907846 137.949832C306.998025 139.576262 307.358735 141.010661 307.989988 142.253072 308.62124 143.495484 309.44411 144.557165 310.458623 145.438147 311.473135 146.31913 312.656716 146.985504 314.009399 147.43729 315.362083 147.889076 316.827468 148.114966 318.405599 148.114966 319.532835 148.114966 320.73896 148.013316 322.024009 147.810012 323.309058 147.606708 324.503911 147.23399 325.608602 146.691847 326.713294 146.149704 327.626342 145.392974 328.347773 144.421634 329.069204 143.450294 329.429914 142.219196 329.429914 140.728302 329.429914 138.785622 328.84376 137.31734 327.671434 136.323411 326.499109 135.329482 325.022451 134.561457 323.241418 134.019314 321.460385 133.477171 319.544112 133.036686 317.492542 132.697847 315.440972 132.359007 313.524699 131.850756 311.743666 131.173077 309.962632 130.495398 308.485975 129.535367 307.313649 128.292955 306.141324 127.050544 305.55517 125.232133 305.55517 122.837667 305.55517 121.12088 305.938424 119.686481 306.704945 118.534427 307.471465 117.382373 308.452146 116.46752 309.647017 115.789841 310.841887 115.112162 312.183278 114.626499 313.67123 114.332838 315.159182 114.039178 316.647111 113.892349 318.135063 113.892349 319.938641 113.892349 321.62947 114.09565 323.207601 114.502257 324.785732 114.908865 326.149667 115.563945 327.299448 116.467517 328.449229 117.371088 329.351005 118.523125 330.004802 119.923662 330.658599 121.324198 330.985492 123.01837 330.985492 125.006229L328.415407 125.006229C328.415407 123.424978 328.156146 122.06964 327.637617 120.940175 327.119089 119.81071 326.397668 118.895858 325.473335 118.195589 324.549001 117.495321 323.455598 116.975775 322.193094 116.636935 320.930589 116.298096 319.577926 116.128679 318.135063 116.128679 316.962738 116.128679 315.779157 116.241624 314.584287 116.467517 313.389416 116.69341 312.318558 117.077422 311.37168 117.619565 310.424801 118.161708 309.64702 118.861966 309.038312 119.720359 308.429605 120.578753 308.125255 121.617845 308.125255 122.837667 308.125255 124.238203 308.463421 125.367651 309.139763 126.226045 309.816105 127.084438 310.706608 127.773401 311.8113 128.292955 312.915991 128.812509 314.155932 129.230405 315.531161 129.546655 316.906389 129.862905 318.292869 130.179151 319.690642 130.495401 321.404041 130.811651 323.015964 131.184369 324.526461 131.613566 326.036958 132.042762 327.344532 132.630075 328.449224 133.375522 329.553915 134.120969 330.421874 135.081 331.053126 136.255643 331.684379 137.430287 332 138.921158 332 140.728302 332 142.625803 331.571657 144.184442 330.714957 145.404264 329.858258 146.624086 328.776127 147.606706 327.468533 148.352152 326.160939 149.097599 324.706826 149.617145 323.10615 149.910806 321.505475 150.204467 319.93864 150.351295 318.405599 150.351295 316.421663 150.351295 314.584295 150.091522 312.893441 149.571968 311.202587 149.052415 309.725929 148.261801 308.463425 147.200104 307.20092 146.138407 306.208967 144.839542 305.487536 143.303469 304.766105 141.767397 304.38285 139.982869 304.337761 137.949832L306.907846 137.949832zM.845023256.125360825L5.62567442.125360825 5.62567442 73.7187629 49.6293953 73.7187629 49.6293953 77.8556701.845023256 77.8556701.845023256.125360825zM98.6310698 77.8556701L94.5023256 77.8556701 94.5023256 65.8804124 94.2850233 65.8804124C93.5606785 67.9851652 92.5285028 69.8540125 91.1884651 71.4870103 89.8484274 73.1200082 88.2911096 74.5171076 86.5164651 75.6783505 84.7418206 76.8395934 82.8042276 77.7105126 80.7036279 78.291134 78.6030283 78.8717555 76.4662434 79.1620619 74.2932093 79.1620619 71.0336581 79.1620619 68.2630812 78.7628906 65.9813953 77.9645361 63.6997095 77.1661816 61.8345499 76.113821 60.3858605 74.8074227 58.9371711 73.5010244 57.7963453 72.0313484 56.9633488 70.3983505 56.1303524 68.7653527 55.532777 67.1142352 55.1706047 65.4449485 54.8084323 63.7756618 54.5911321 62.1608325 54.5186977 60.6004124 54.4462632 59.0399922 54.4100465 57.6791811 54.4100465 56.5179381L54.4100465 21.8985567 58.5387907 21.8985567 58.5387907 57.28C58.5387907 58.7315536 58.6474408 60.491536 58.8647442 62.56 59.0820476 64.628464 59.7158397 66.6243203 60.7661395 68.5476289 61.8164394 70.4709375 63.3918655 72.122055 65.4924651 73.5010309 67.5930648 74.8800069 70.5628335 75.5694845 74.4018605 75.5694845 77.5165427 75.5694845 80.3233363 74.9888718 82.8223256 73.8276289 85.3213148 72.6663859 87.4399913 71.0515567 89.1784186 68.9830928 90.9168459 66.9146288 92.2387552 64.4470246 93.144186 61.5802062 94.0496169 58.7133877 94.5023256 55.57445 94.5023256 52.163299L94.5023256 21.8985567 98.6310698 21.8985567 98.6310698 77.8556701zM111.017302.125360825L115.146047.125360825 115.146047 51.6189691 149.588465 21.8985567 155.564279 21.8985567 131.117767 42.8008247 157.302698 77.8556701 151.652837 77.8556701 127.858233 45.9579381 115.146047 56.7356701 115.146047 77.8556701 111.017302 77.8556701 111.017302.125360825zM162.735256 50.4214433L162.735256 51.0746392C162.735256 54.3406349 163.169856 57.4614284 164.03907 60.4371134 164.908283 63.4127984 166.193976 66.0255558 167.896186 68.2754639 169.598396 70.5253721 171.735181 72.3034986 174.306605 73.6098969 176.878028 74.9162952 179.865905 75.5694845 183.270326 75.5694845 188.84778 75.5694845 193.266216 74.0998085 196.525767 71.1604124 199.785319 68.2210162 202.030754 64.1385828 203.26214 58.9129897L207.390884 58.9129897C206.159498 65.4449811 203.497571 70.4527661 199.405023 73.9364948 195.312476 77.4202236 189.89808 79.1620619 183.161674 79.1620619 179.03291 79.1620619 175.429349 78.4181518 172.350884 76.9303093 169.272419 75.4424668 166.701034 73.4103222 164.636651 70.8338144 162.572269 68.2573067 161.033059 65.2090898 160.018977 61.6890722 159.004894 58.1690546 158.49786 54.3769275 158.49786 50.3125773 158.49786 46.3933825 159.023003 42.6375437 160.073302 39.0449485 161.123602 35.4523532 162.699028 32.2952713 164.799628 29.5736082 166.900228 26.8519452 169.525938 24.6746473 172.676837 23.0416495 175.827737 21.4086516 179.539948 20.5921649 183.813581 20.5921649 187.725043 20.5921649 191.183737 21.3179309 194.189767 22.7694845 197.195798 24.2210382 199.712858 26.1987504 201.741023 28.7026804 203.769188 31.2066105 205.308398 34.1096742 206.358698 37.4119588 207.408997 40.7142433 207.93414 44.2523523 207.93414 48.0263918 207.93414 48.3892802 207.916031 48.8065956 207.879814 49.2783505 207.843597 49.7501055 207.825488 50.1311326 207.825488 50.4214433L162.735256 50.4214433zM203.696744 46.828866C203.551875 43.7806033 203.044842 40.8956837 202.175628 38.1740206 201.306414 35.4523575 200.020722 33.0573299 198.318512 30.988866 196.616302 28.920402 194.55195 27.2692845 192.125395 26.0354639 189.698841 24.8016433 186.928264 24.1847423 183.813581 24.1847423 180.481596 24.1847423 177.548044 24.8197875 175.012837 26.0898969 172.477631 27.3600064 170.340846 29.029268 168.602419 31.097732 166.863991 33.1661959 165.523974 35.5793677 164.582326 38.3373196 163.640677 41.0952715 163.06121 43.9257587 162.843907 46.828866L203.696744 46.828866z"/>
  </g>
</svg>
