<svg width="34" height="34" viewBox="0 0 34 34" xmlns="http://www.w3.org/2000/svg"><title>twitter</title><g fill="#828282" fill-rule="evenodd"><path d="M17 .966C8.159.966.965 8.158.965 17c0 8.842 7.194 16.034 16.035 16.034 8.841 0 16.035-7.192 16.035-16.034C33.035 8.158 25.841.966 17 .966zm0 31C8.748 31.966 2.035 25.252 2.035 17 2.035 8.748 8.748 2.034 17 2.034c8.252 0 14.965 6.714 14.965 14.966 0 8.252-6.713 14.966-14.965 14.966z"/><path d="M25.794 12.046a3.73 3.73 0 0 0 .273-.643.535.535 0 0 0-.781-.623 6.033 6.033 0 0 1-1.646.673 3.831 3.831 0 0 0-2.562-.987 3.82 3.82 0 0 0-3.814 3.973 8.821 8.821 0 0 1-5.735-3.178.536.536 0 0 0-.876.07 3.813 3.813 0 0 0-.066 3.721.628.628 0 0 0-.214.078.571.571 0 0 0-.264.481c0 1.135.505 2.177 1.319 2.885l-.035.035a.534.534 0 0 0-.108.518 3.816 3.816 0 0 0 2.184 2.365 6.134 6.134 0 0 1-3.406.579.545.545 0 0 0-.566.352.536.536 0 0 0 .215.63 9.841 9.841 0 0 0 5.319 1.559c6.18 0 9.874-5.02 9.874-9.873l-.001-.164a7.122 7.122 0 0 0 1.541-1.66.535.535 0 0 0-.651-.791zm-1.745 1.755a.535.535 0 0 0-.222.461c.006.132.009.266.009.398 0 4.328-3.293 8.805-8.804 8.805a8.76 8.76 0 0 1-2.887-.488 7.073 7.073 0 0 0 3.045-1.39.535.535 0 0 0-.32-.955 2.752 2.752 0 0 1-2.194-1.162c.253-.017.501-.059.742-.124a.534.534 0 0 0-.036-1.04 2.741 2.741 0 0 1-2.081-1.905c.266.067.539.106.812.115a.55.55 0 0 0 .526-.371.533.533 0 0 0-.212-.607 2.746 2.746 0 0 1-1.143-2.945 9.883 9.883 0 0 0 6.568 2.972.544.544 0 0 0 .437-.191.536.536 0 0 0 .11-.464 2.75 2.75 0 0 1 4.682-2.506.535.535 0 0 0 .494.159c.165-.033.328-.071.489-.115a2.538 2.538 0 0 1-.226.151.535.535 0 0 0 .338.988l.182-.023a5.605 5.605 0 0 1-.309.237z"/></g></svg>